<svg id="Calque_1" data-name="Calque 1" xmlns="http://www.w3.org/2000/svg" xmlns:xlink="http://www.w3.org/1999/xlink" viewBox="0 0 512 512"><defs><style>.cls-1{fill:none;}.cls-2{clip-path:url(#clip-path);}.cls-3{fill:#fff;}</style><clipPath id="clip-path"><rect class="cls-1" width="512" height="512"/></clipPath></defs><title>documentation</title><g class="cls-2"><path class="cls-3" d="M352,192H96v32H352Zm16,288A112,112,0,1,1,480,368,112.16,112.16,0,0,1,368,480ZM64,480V96H384V225a142.38,142.38,0,0,0-106.45,31H96v32H248.26a143.11,143.11,0,0,0-15.92,32H96v32H224.91a148.37,148.37,0,0,0-.94,16,143.58,143.58,0,0,0,53.57,112ZM45.65,63.7c-2.85-.42-7-1.8-9.27-3.81S32.27,56,32,48c.53-10.34,3.11-11,7.15-13.7a23.74,23.74,0,0,1,6.47-2C47.52,32,48,32.08,48,32H352V64H48A13,13,0,0,1,45.65,63.7ZM512,368a144,144,0,0,0-96-135.64V64H384V32h32V0H48A54,54,0,0,0,24.9,5.66C12.93,11-.54,26.32,0,48c0,.1,0,.19,0,.29V480c0,32,32,32,32,32h337.3l-.11-.06A143.93,143.93,0,0,0,512,368Z"/></g><g class="cls-2"><path class="cls-3" d="M352,288v32h32V288Zm0,160h32V352H352Z"/></g></svg>