<svg id="Calque_1" data-name="Calque 1" xmlns="http://www.w3.org/2000/svg" xmlns:xlink="http://www.w3.org/1999/xlink" viewBox="0 0 512 512"><defs><style>.cls-1{fill:none;}.cls-2{clip-path:url(#clip-path);}.cls-3{fill:#fff;}</style><clipPath id="clip-path"><rect class="cls-1" width="512" height="512"/></clipPath></defs><title>home</title><g class="cls-2"><path class="cls-3" d="M509.44,254.12l-.1-.09v.09Zm-14-9.91a9.48,9.48,0,0,0-3.08-7L262.75,7.46a9.66,9.66,0,0,0-6.75-3v.35a9.56,9.56,0,0,0-6.75,3L19.61,237.52A9.55,9.55,0,0,0,26.1,254.1H80.53V507.55H207.25V361.35a9.73,9.73,0,0,1,9.71-9.74h77.92a9.75,9.75,0,0,1,9.74,9.74V507.57H431.44V253.79h54.43a9.58,9.58,0,0,0,9.6-9.58M2.56,253.79h.1v-.09Z"/></g></svg>