<?xml version="1.0" encoding="utf-8"?>
<!-- Generator: Adobe Illustrator 22.1.0, SVG Export Plug-In . SVG Version: 6.00 Build 0)  -->
<svg version="1.1" id="Calque_1" xmlns="http://www.w3.org/2000/svg" xmlns:xlink="http://www.w3.org/1999/xlink" x="0px" y="0px"
	 viewBox="0 0 423.1 423" style="enable-background:new 0 0 423.1 423;" xml:space="preserve">
<style type="text/css">
	.st0{fill:#FFFFFF;}
</style>
<g id="A_-_70_x2C__Agreement_x2C__deal_x2C__handshake_x2C__Business_x2C__partner">
	<g>
		<path class="st0" d="M72.7,179.3c-1-0.6-2.2-0.9-3.3-0.9c-2.4,0-4.5,1.2-5.7,3.3c-0.9,1.6-1.1,3.3-0.7,5c0.5,1.7,1.5,3.1,3.1,4
			c1,0.6,2.1,0.9,3.3,0.9c2.4,0,4.6-1.3,5.8-3.3c0.9-1.5,1.1-3.3,0.6-5C75.3,181.6,74.3,180.2,72.7,179.3z"/>
		<path class="st0" d="M94.1,246.6c-0.1-0.1-0.2-0.3-0.3-0.4c-0.1-0.1-0.1-0.1-0.2-0.2l0,0c0,0,0,0,0,0l-0.2-0.3l-9.5-16.1
			c0,0,0,0,0,0c-0.2,0.1-0.4,0.3-0.6,0.4c0,0-0.1,0-0.1,0c-0.2,0.1-0.4,0.2-0.7,0.2c0,0-0.1,0-0.1,0c-0.2,0-0.4,0.1-0.6,0.1
			c0,0-0.1,0-0.1,0c0,0-0.1,0-0.1,0c-0.2,0-0.5,0-0.7-0.1c0,0,0,0,0,0l-21.7,12.5c-5.8,3.4-7.8,10.8-4.4,16.6c2.2,3.7,6.2,6,10.6,6
			c2.1,0,4.2-0.5,6-1.6l18.1-10.4c1.6-0.9,3.5-0.4,4.5,1.2c0.9,1.5,0.4,3.5-1.1,4.5c-5.6,3.4-7.5,10.8-4.2,16.5
			c2.2,3.7,6.2,6,10.6,6c2.1,0,4.2-0.6,6-1.6l15.2-8.8c1.6-0.9,3.5-0.4,4.5,1.2c0.9,1.5,0.4,3.5-1.1,4.5c-5.6,3.4-7.4,10.8-4.2,16.5
			c2.2,3.7,6.2,6.1,10.6,6.1c2.1,0,4.2-0.6,6-1.6l19.4-11.2c0.5-0.3,1.1-0.4,1.6-0.4c1.1,0,2.2,0.6,2.8,1.6c0.9,1.5,0.4,3.5-1.1,4.5
			c-5.6,3.4-7.4,10.8-4.2,16.5c2.1,3.7,6.2,6.1,10.5,6.1c2.1,0,4.2-0.6,6.1-1.6l18.7-10.8l-95.2-55C94.6,247,94.3,246.8,94.1,246.6z
			"/>
		<path class="st0" d="M206.7,149.4c-21,0.1-42.5-1.7-57.7-16.1c-0.5-0.5-1-1-1.5-1.5c-0.1-0.1-0.2-0.3-0.4-0.4
			c-0.4-0.4-0.7-0.8-1.1-1.2c-0.1-0.1-0.2-0.2-0.3-0.3c-0.4-0.5-0.7-0.9-1-1.4c-0.2-0.2-0.3-0.5-0.4-0.7c-0.2-0.3-0.3-0.5-0.4-0.8
			c-0.1-0.2-0.2-0.4-0.3-0.5l-9.5,16.5l-17.5,30.3l-28.8,49.9l11,18.6l97.8,56.5c0,0,0,0,0,0c0.3,0.2,0.6,0.3,0.8,0.4
			c0.1,0.1,0.2,0.1,0.4,0.2c0.2,0.1,0.4,0.1,0.5,0.2c1.7,0.7,3.5,1.1,5.4,1.1c5.1,0,9.9-2.7,12.4-7.2c3.8-6.6,1.6-15.3-4.9-19.3
			c-1.5-0.9-2-2.9-1.1-4.5c0.9-1.5,2.9-2.1,4.5-1.2l22.1,12.8c2.1,1.2,4.6,1.9,7.1,1.9c5.1,0,9.9-2.7,12.4-7.1
			c3.9-6.6,1.6-15.3-4.9-19.4c-1.5-0.9-2-2.9-1.1-4.5c0.9-1.5,2.9-2.1,4.5-1.2l17.3,10c2.1,1.2,4.6,1.9,7.1,1.9
			c5.1,0,9.9-2.7,12.4-7.1c3.8-6.6,1.6-15.3-4.9-19.4c-1.5-0.9-2-2.9-1.1-4.5c0.9-1.5,2.9-2,4.5-1.1l20.6,12
			c2.1,1.2,4.6,1.8,7.1,1.8c5.2,0,10-2.7,12.5-7.1c2.4-4.1,2.5-9.1,0.4-13.4L206.7,149.4z"/>
		<path class="st0" d="M353.9,182.2c-1.8,0-3.4,0.7-4.7,1.9c-2.6,2.6-2.6,6.8,0,9.3c1.2,1.2,2.9,1.9,4.7,1.9c1.8,0,3.4-0.7,4.7-1.9
			c2.5-2.6,2.5-6.7,0-9.3C357.3,182.9,355.7,182.2,353.9,182.2z"/>
		<path class="st0" d="M81,222c0.1-0.2,0.1-0.3,0.2-0.4l11.6-20l18.3-31.7l30.8-53.4c0,0,0-0.1,0-0.1c0-0.1,0.1-0.2,0.1-0.3
			c0.1-0.3,0.1-0.5,0.2-0.8c0.1-0.2,0.1-0.4,0.2-0.6c0.1-0.2,0.1-0.4,0.2-0.5c0-0.1,0-0.1,0.1-0.2c0.6-1.6,1.8-3.7,4-5.6l1.9-3.3
			l-47.8-27.6l-4.1,7.1c-0.1,0.4-0.2,0.8-0.4,1.2L37.4,187.5c-0.2,0.4-0.5,0.7-0.8,0.9l-3.8,6.5l47.8,27.6L81,222z M69.4,198.2
			c-2.3,0-4.6-0.6-6.5-1.8c-3.1-1.7-5.2-4.6-6.2-8c-0.9-3.4-0.4-6.9,1.3-10c2.3-4.1,6.7-6.6,11.4-6.6c2.3,0,4.6,0.6,6.6,1.8
			c3,1.8,5.2,4.6,6.1,8c0.9,3.4,0.4,7-1.3,10C78.4,195.7,74.1,198.2,69.4,198.2z"/>
		<polygon class="st0" points="366.3,71.2 332.6,90.6 381.7,175.7 388,186.7 421.8,167.3 		"/>
		<path class="st0" d="M148.4,117.6C148.4,117.6,148.3,117.7,148.4,117.6c-0.2,1-0.1,2,0.1,3c0,0.1,0,0.2,0.1,0.3
			c0,0.1,0.1,0.3,0.1,0.4c0,0.1,0.1,0.3,0.1,0.4c0,0.1,0.1,0.2,0.1,0.3c0.1,0.2,0.1,0.3,0.2,0.5c0,0,0,0.1,0,0.1
			c0.5,1.1,1.1,2.2,2,3.3c0,0,0,0,0,0c0.2,0.2,0.3,0.4,0.5,0.6c0,0,0.1,0.1,0.1,0.1c0.2,0.2,0.3,0.4,0.5,0.5
			c0.1,0.1,0.1,0.2,0.2,0.2c0.1,0.2,0.3,0.3,0.4,0.5c0.2,0.2,0.5,0.5,0.7,0.7c13.3,12.6,33.4,14.3,53.1,14.3l1,0c0,0,0,0,0,0
			c0,0,0,0,0,0h0c0,0,0,0,0,0c0.1,0,0.1,0,0.2,0c0.1,0,0.1,0,0.2,0c0.1,0,0.2,0,0.3,0.1c0.1,0,0.1,0,0.2,0c0.1,0,0.2,0.1,0.2,0.1
			c0.1,0,0.1,0,0.2,0.1c0.1,0,0.1,0.1,0.2,0.1c0.1,0,0.1,0.1,0.2,0.1l0.2,0.1L323.8,212l-2.9-5.1l-53.8-93l-5.5,1.6
			c-1.1,0.3-2.3,0.1-3.1-0.7c-9-8.2-16.9-12-24.9-12c-6.1,0-11.4,2.2-17,4.5c-5.5,2.2-11.1,4.6-17.3,4.6c-1.8,0-3.6-0.2-5.3-0.6
			c-8.9-2-16.9-3-23.8-3c-8.5,0-15.2,1.6-18.8,4.5c-0.1,0.1-0.1,0.1-0.2,0.2c-1,0.8-1.7,1.7-2.2,2.6c-0.1,0.1-0.1,0.3-0.2,0.4
			c-0.1,0.1-0.1,0.2-0.1,0.4c0,0.1-0.1,0.2-0.1,0.3c0,0.1-0.1,0.2-0.1,0.3C148.4,117.2,148.4,117.4,148.4,117.6z"/>
		<path class="st0" d="M384,192.9l-6.9-11.9l-57.1-98.8l-47.8,27.6l0.4,0.6l15.9,27.5l31.9,55.2l19.8,34.2l47.8-27.6L384,192.9
			C384,192.9,384,192.9,384,192.9z M363.2,198.1c-2.5,2.5-5.8,3.9-9.3,3.9c-3.5,0-6.8-1.4-9.3-3.9c-5.1-5.1-5.1-13.5,0-18.6
			c2.5-2.5,5.8-3.9,9.3-3.9c3.5,0,6.8,1.4,9.3,3.8C368.3,184.7,368.3,193,363.2,198.1z"/>
		<polygon class="st0" points="88.6,85.2 55.1,65.8 -0.3,161.9 33.2,181.3 		"/>
	</g>
</g>
<g id="Layer_1">
</g>
</svg>
