<svg id="Calque_1" data-name="Calque 1" xmlns="http://www.w3.org/2000/svg" xmlns:xlink="http://www.w3.org/1999/xlink" viewBox="0 0 512 512"><defs><style>.cls-1{fill:none;}.cls-2{clip-path:url(#clip-path);}.cls-3{fill:#fff;}</style><clipPath id="clip-path"><rect class="cls-1" width="512" height="512"/></clipPath></defs><title>settings</title><g class="cls-2"><circle class="cls-3" cx="256" cy="256" r="64"/></g><g class="cls-2"><path class="cls-3" d="M256,362.67A106.67,106.67,0,1,1,362.67,256,106.67,106.67,0,0,1,256,362.67ZM512,320V192H436.91c-3.42-9.6-7.68-18.56-7.68-18.56l53.12-53.12L391.68,29.65,338.56,82.77c-9-4-18.56-7.68-18.56-7.68V0H192V75.09c-9.6,3.42-18.56,7.68-18.56,7.68L120.32,29.65,29.65,120.32l53.12,53.12c-4,9-7.68,18.56-7.68,18.56H0V320H75.09c3.42,9.6,7.68,18.56,7.68,18.56L29.65,391.68l90.67,90.67,53.12-53.12c9,4,18.56,7.68,18.56,7.68V512H320V436.91c9.6-3.42,18.56-7.68,18.56-7.68l53.12,53.12,90.67-90.67-53.12-53.12c4-9,7.68-18.56,7.68-18.56Z"/></g></svg>